<svg width="90" height="90" viewBox="0 0 90 90" version="1.1" xmlns="http://www.w3.org/2000/svg" xmlns:xlink="http://www.w3.org/1999/xlink">
<title>pencil-ruler</title>
<desc>Created using Figma</desc>
<g id="Canvas" transform="translate(179 234)">
<g id="pencil-ruler">
<g id="pencil ruler">
<g id="pencil-ruler">
<clipPath id="clip-0" clip-rule="evenodd">
<path d="M -179 -234L -89 -234L -89 -144L -179 -144L -179 -234Z" fill="#FFFFFF"/>
</clipPath>
<g id="label" clip-path="url(#clip-0)">
</g>
<g id="icon">
<g id="Vector">
<use xlink:href="#path0_fill" transform="translate(-156 -211)" fill="#F2C94C"/>
</g>
<g id="Vector">
<use xlink:href="#path1_fill" transform="translate(-157.001 -211.991)" fill="#3D3D3D"/>
</g>
<g id="Vector">
<use xlink:href="#path2_fill" transform="translate(-138.57 -201.105)" fill="#3D3D3D"/>
</g>
<g id="Vector">
<use xlink:href="#path3_fill" transform="translate(-145.17 -207.879)" fill="#3D3D3D"/>
</g>
<g id="Vector">
<use xlink:href="#path4_fill" transform="translate(-131.678 -194.335)" fill="#464C63"/>
</g>
<g id="Vector">
<use xlink:href="#path5_fill" transform="translate(-124.88 -187.565)" fill="#3D3D3D"/>
</g>
<g id="Vector">
<use xlink:href="#path6_fill" transform="translate(-135.919 -197.688)" fill="#464C63"/>
</g>
<g id="Vector">
<use xlink:href="#path7_fill" transform="translate(-142.639 -204.41)" fill="#3D3D3D"/>
</g>
<g id="Vector">
<use xlink:href="#path8_fill" transform="translate(-129.05 -190.958)" fill="#464C63"/>
</g>
<g id="Vector">
<use xlink:href="#path9_fill" transform="translate(-122.339 -184.068)" fill="#3D3D3D"/>
</g>
<g id="Vector">
<use xlink:href="#path10_fill" transform="translate(-118.26 -180.799)" fill="#3D3D3D"/>
</g>
<g id="Vector">
<use xlink:href="#path11_fill" transform="translate(-156 -207.68)" fill="#E5E5E5"/>
</g>
<g id="Vector">
<use xlink:href="#path12_fill" transform="translate(-157.001 -208.594)" fill="#3D3D3D"/>
</g>
<g id="Vector">
<use xlink:href="#path13_fill" transform="translate(-126.6 -209.66)" fill="#E5E5E5"/>
</g>
<g id="Vector">
<use xlink:href="#path14_fill" transform="translate(-127.6 -210.704)" fill="#3D3D3D"/>
</g>
<g id="Vector">
<use xlink:href="#path15_fill" transform="translate(-117.87 -211)" fill="#00C6FF"/>
</g>
<g id="Vector">
<use xlink:href="#path16_fill" transform="translate(-118.866 -212.026)" fill="#3D3D3D"/>
</g>
</g>
</g>
</g>
</g>
</g>
<defs>
<path id="path0_fill" d="M 0 9.93L 9.93 0L 44 34.07L 34.07 44L 0 9.93ZM 9.61 9.93C 9.61 9.50081 9.48273 9.08127 9.24429 8.72441C 9.00585 8.36756 8.66694 8.08942 8.27042 7.92518C 7.87391 7.76094 7.43759 7.71797 7.01665 7.8017C 6.59571 7.88543 6.20906 8.0921 5.90558 8.39558C 5.6021 8.69906 5.39542 9.08571 5.3117 9.50665C 5.22797 9.92759 5.27094 10.3639 5.43518 10.7604C 5.59942 11.1569 5.87756 11.4958 6.23441 11.7343C 6.59127 11.9727 7.01082 12.1 7.44 12.1C 7.72923 12.1001 8.01555 12.0423 8.28214 11.9302C 8.54873 11.818 8.7902 11.6537 8.99237 11.4468C 9.19454 11.24 9.35333 10.9949 9.45939 10.7258C 9.56546 10.4567 9.61666 10.1691 9.61 9.88L 9.61 9.93Z"/>
<path id="path1_fill" d="M 35.0708 45.9908C 34.9392 45.9916 34.8087 45.9663 34.6869 45.9166C 34.565 45.8668 34.4542 45.7935 34.3608 45.7008L 0.290794 11.6308C 0.104543 11.4434 -7.60998e-07 11.19 -7.60998e-07 10.9258C -7.60998e-07 10.6616 0.104543 10.4082 0.290794 10.2208L 10.2208 0.290792C 10.4082 0.104541 10.6616 -5.32116e-07 10.9258 -5.32116e-07C 11.19 -5.32116e-07 11.4434 0.104541 11.6308 0.290792L 45.7108 34.3508C 45.897 34.5382 46.0016 34.7916 46.0016 35.0558C 46.0016 35.32 45.897 35.5734 45.7108 35.7608L 35.7808 45.6908C 35.6882 45.7853 35.5777 45.8605 35.4559 45.9119C 35.334 45.9634 35.2031 45.9902 35.0708 45.9908ZM 2.42079 10.9208L 35.0708 43.5708L 43.5808 35.0508L 10.9308 2.41079L 2.42079 10.9208ZM 8.42079 14.0408C 7.79383 14.0408 7.18094 13.8549 6.65963 13.5066C 6.13833 13.1582 5.73202 12.6631 5.49209 12.0839C 5.25217 11.5047 5.18939 10.8673 5.3117 10.2524C 5.43402 9.63743 5.73593 9.0726 6.17926 8.62926C 6.6226 8.18593 7.18744 7.88402 7.80236 7.7617C 8.41728 7.63939 9.05466 7.70216 9.6339 7.94209C 10.2131 8.18202 10.7082 8.58833 11.0566 9.10964C 11.4049 9.63094 11.5908 10.2438 11.5908 10.8708C 11.5882 11.7073 11.2561 12.5091 10.6665 13.1024C 10.0769 13.6958 9.27724 14.0329 8.44079 14.0408L 8.42079 14.0408ZM 8.42079 9.69079C 8.18939 9.69079 7.96318 9.75941 7.77078 9.88797C 7.57837 10.0165 7.42841 10.1993 7.33985 10.4131C 7.2513 10.6268 7.22813 10.8621 7.27327 11.089C 7.31842 11.316 7.42985 11.5245 7.59348 11.6881C 7.75711 11.8517 7.96558 11.9632 8.19254 12.0083C 8.41949 12.0535 8.65474 12.0303 8.86853 11.9417C 9.08232 11.8532 9.26505 11.7032 9.39361 11.5108C 9.52217 11.3184 9.59079 11.0922 9.59079 10.8608C 9.58823 10.5557 9.46656 10.2636 9.25172 10.0469C 9.03689 9.83019 8.74589 9.706 8.44079 9.70079L 8.42079 9.69079Z"/>
<path id="path2_fill" d="M 2.75966 0.235386C 2.60629 0.0845377 2.39979 -8.47573e-08 2.18467 -8.47573e-08C 1.96955 -8.47573e-08 1.76304 0.0845377 1.60967 0.235386L 0.319666 1.52538C 0.227286 1.59653 0.15114 1.68656 0.0963117 1.78947C 0.0414829 1.89237 0.00923034 2.00578 0.00170717 2.12214C -0.005816 2.2385 0.0115659 2.35512 0.0526868 2.46423C 0.0938077 2.57334 0.157722 2.67243 0.240172 2.75488C 0.322621 2.83733 0.421708 2.90125 0.530817 2.94237C 0.639926 2.98349 0.75655 3.00087 0.872908 2.99334C 0.989266 2.98582 1.10268 2.95357 1.20559 2.89874C 1.30849 2.84391 1.39852 2.76776 1.46967 2.67538L 2.75966 1.38538C 2.91051 1.23201 2.99505 1.02551 2.99505 0.810387C 2.99505 0.595264 2.91051 0.388756 2.75966 0.235386Z"/>
<path id="path3_fill" d="M 2.60034 0.239496C 2.52504 0.163607 2.43547 0.103372 2.33678 0.0622675C 2.23809 0.0211627 2.13224 2.16273e-07 2.02533 2.16273e-07C 1.91843 2.16273e-07 1.81258 0.0211627 1.7139 0.0622675C 1.61521 0.103372 1.52563 0.163607 1.45033 0.239496L 0.170335 1.5395C 0.0487975 1.69731 -0.0111416 1.89396 0.0017102 2.09274C 0.014562 2.29151 0.099327 2.47881 0.240175 2.61966C 0.381022 2.76051 0.568321 2.84527 0.767095 2.85812C 0.965868 2.87097 1.16252 2.81103 1.32034 2.6895L 2.61033 1.3995C 2.6871 1.32337 2.74784 1.23264 2.78899 1.13267C 2.83014 1.03269 2.85086 0.925494 2.84993 0.817387C 2.849 0.70928 2.82643 0.602454 2.78357 0.503205C 2.7407 0.403955 2.6784 0.31429 2.60034 0.239496Z"/>
<path id="path4_fill" d="M 2.67817 0.235386C 2.5248 0.0845382 2.31829 3.73006e-07 2.10317 3.73006e-07C 1.88805 3.73006e-07 1.68154 0.0845382 1.52817 0.235386L 0.238174 1.52538C 0.0856747 1.67788 -2.66821e-07 1.88472 -2.66821e-07 2.10038C -2.66821e-07 2.31605 0.0856747 2.52289 0.238174 2.67538C 0.390674 2.82788 0.597504 2.91356 0.813171 2.91356C 1.02884 2.91356 1.23567 2.82788 1.38817 2.67538L 2.67817 1.38538C 2.82902 1.23201 2.91356 1.02551 2.91356 0.810383C 2.91356 0.595261 2.82902 0.388757 2.67817 0.235386Z"/>
<path id="path5_fill" d="M 2.61033 0.235383C 2.45696 0.0845349 2.25046 8.3077e-07 2.03533 8.3077e-07C 1.82021 8.3077e-07 1.61371 0.0845349 1.46034 0.235383L 0.170336 1.56538C 0.0487985 1.7232 -0.0111407 1.91985 0.00171111 2.11863C 0.0145629 2.3174 0.0993241 2.5047 0.240172 2.64555C 0.381019 2.78639 0.568322 2.87116 0.767096 2.88401C 0.965869 2.89686 1.16252 2.83692 1.32033 2.71539L 2.61033 1.42539C 2.69244 1.34954 2.75796 1.25752 2.80277 1.15513C 2.84759 1.05273 2.87072 0.94216 2.87072 0.830384C 2.87072 0.718609 2.84759 0.608042 2.80277 0.505643C 2.75796 0.403243 2.69244 0.311227 2.61033 0.235383Z"/>
<path id="path6_fill" d="M 2.34877 0.208173L 0.278771 2.26817C 0.151037 2.37915 0.0612617 2.52733 0.0220498 2.69193C -0.0171621 2.85653 -0.00384163 3.02928 0.0601395 3.18592C 0.124121 3.34257 0.235549 3.47524 0.378785 3.56532C 0.522021 3.6554 0.68987 3.69836 0.858769 3.68817C 0.966633 3.68934 1.07362 3.66868 1.17329 3.62743C 1.27296 3.58619 1.36327 3.52521 1.43877 3.44817L 3.50877 1.38817C 3.58428 1.31266 3.64418 1.22302 3.68504 1.12436C 3.72591 1.0257 3.74695 0.91996 3.74695 0.813173C 3.74695 0.706385 3.72591 0.600644 3.68504 0.501985C 3.64418 0.403326 3.58428 0.313682 3.50877 0.238172C 3.43326 0.162662 3.34362 0.102764 3.24496 0.0618987C 3.1463 0.0210329 3.04056 1.41165e-06 2.93377 1.41165e-06C 2.82698 1.41165e-06 2.72124 0.0210329 2.62258 0.0618987C 2.52392 0.102764 2.43428 0.162662 2.35877 0.238172L 2.34877 0.208173Z"/>
<path id="path7_fill" d="M 2.2995 0.160335L 0.239494 2.23033C 0.163604 2.30563 0.103372 2.3952 0.0622673 2.49389C 0.0211625 2.59258 -1.26091e-08 2.69843 -1.26091e-08 2.80534C -1.26091e-08 2.91224 0.0211625 3.01809 0.0622673 3.11678C 0.103372 3.21546 0.163604 3.30504 0.239494 3.38034C 0.314997 3.45738 0.405301 3.51835 0.504974 3.5596C 0.604648 3.60084 0.711633 3.6215 0.819496 3.62033C 0.927278 3.62093 1.0341 3.60001 1.13369 3.5588C 1.23328 3.51759 1.32365 3.45692 1.39949 3.38034L 3.4695 1.32033C 3.59104 1.16252 3.65097 0.965867 3.63812 0.767093C 3.62527 0.56832 3.54051 0.38102 3.39966 0.240173C 3.25881 0.0993254 3.07151 0.0145622 2.87274 0.00171042C 2.67396 -0.0111414 2.47731 0.0487978 2.3195 0.170335L 2.2995 0.160335Z"/>
<path id="path8_fill" d="M 2.24033 0.248174L 0.170334 2.30817C 0.0487965 2.46598 -0.0111427 2.66264 0.00170913 2.86141C 0.0145609 3.06019 0.099326 3.24749 0.240173 3.38833C 0.381021 3.52918 0.56832 3.61395 0.767094 3.6268C 0.965867 3.63965 1.16252 3.57971 1.32034 3.45817L 3.39034 1.38817C 3.54283 1.23567 3.62851 1.02884 3.62851 0.813172C 3.62851 0.597505 3.54283 0.390671 3.39034 0.238172C 3.23784 0.0856721 3.031 9.24348e-07 2.81533 9.1753e-07C 2.59967 9.10713e-07 2.39283 0.0856721 2.24033 0.238172L 2.24033 0.248174Z"/>
<path id="path9_fill" d="M 2.3395 0.127891L 0.239497 2.18789C 0.163608 2.26318 0.103371 2.35276 0.0622665 2.45145C 0.0211617 2.55014 -7.75549e-07 2.65598 -7.75549e-07 2.76289C -7.75549e-07 2.86979 0.0211617 2.97564 0.0622665 3.07433C 0.103371 3.17302 0.163608 3.26259 0.239497 3.33789C 0.313825 3.41372 0.402504 3.47399 0.500365 3.5152C 0.598227 3.5564 0.703314 3.57771 0.809497 3.57789C 0.917198 3.57793 1.02385 3.55676 1.12337 3.51558C 1.22289 3.4744 1.31332 3.41402 1.3895 3.33789L 3.45949 1.27789C 3.56466 1.12165 3.61284 0.933984 3.59594 0.746413C 3.57904 0.558843 3.49809 0.382804 3.36669 0.247886C 3.23529 0.112968 3.06145 0.0273906 2.87439 0.00553823C 2.68733 -0.0163141 2.49845 0.0268924 2.3395 0.127891Z"/>
<path id="path10_fill" d="M 2.75967 0.239494C 2.68437 0.163605 2.5948 0.103372 2.49611 0.0622674C 2.39742 0.0211627 2.29157 1.39979e-07 2.18467 1.39979e-07C 2.07776 1.39979e-07 1.97191 0.0211627 1.87323 0.0622674C 1.77454 0.103372 1.68496 0.163605 1.60966 0.239494L 0.319667 1.5295C 0.227287 1.60064 0.151142 1.69067 0.096313 1.79358C 0.0414842 1.89648 0.00923171 2.0099 0.00170854 2.12626C -0.00581463 2.24261 0.0115635 2.35924 0.0526843 2.46835C 0.0938052 2.57746 0.157724 2.67654 0.240173 2.75899C 0.322622 2.84144 0.421706 2.90536 0.530815 2.94648C 0.639924 2.9876 0.756548 3.00498 0.872905 2.99745C 0.989263 2.98993 1.10268 2.95768 1.20559 2.90285C 1.30849 2.84802 1.39852 2.77188 1.46967 2.6795L 2.75967 1.3895C 2.83556 1.3142 2.89579 1.22463 2.93689 1.12594C 2.978 1.02725 2.99916 0.921401 2.99916 0.814495C 2.99916 0.70759 2.978 0.601743 2.93689 0.503056C 2.89579 0.404368 2.83556 0.314791 2.75967 0.239494Z"/>
<path id="path11_fill" d="M 29.4 -3.05176e-07L 0 29.4L 11.28 40.68L 40.68 11.28"/>
<path id="path12_fill" d="M 12.2908 42.5944C 12.1592 42.5952 12.0287 42.57 11.9069 42.5202C 11.785 42.4704 11.6742 42.3971 11.5808 42.3044L 0.290794 31.0144C 0.104543 30.8271 -7.60998e-07 30.5736 -7.60998e-07 30.3094C -7.60998e-07 30.0452 0.104543 29.7918 0.290794 29.6044L 29.6908 0.204416C 29.8823 0.0585623 30.1201 -0.013298 30.3603 0.00203106C 30.6006 0.0173602 30.8272 0.11885 30.9987 0.287863C 31.1701 0.456875 31.2748 0.682065 31.2936 0.922079C 31.3124 1.16209 31.2439 1.40082 31.1008 1.59442L 2.42079 30.3144L 12.2908 40.1844L 41.0008 11.4944C 41.1921 11.3306 41.4382 11.245 41.6898 11.2547C 41.9415 11.2644 42.1803 11.3688 42.3584 11.5469C 42.5365 11.7249 42.6408 11.9637 42.6505 12.2154C 42.6602 12.467 42.5746 12.7131 42.4108 12.9044L 13.0008 42.3044C 12.9074 42.3971 12.7965 42.4704 12.6747 42.5202C 12.5529 42.57 12.4224 42.5952 12.2908 42.5944Z"/>
<path id="path13_fill" d="M 8.73 1.52588e-07L 1.52588e-06 1.98L 11.28 13.26L 13.27 4.53"/>
<path id="path14_fill" d="M 12.2802 15.3039C 12.1486 15.3047 12.0182 15.2795 11.8963 15.2297C 11.7745 15.1799 11.6637 15.1066 11.5702 15.0139L 0.290241 3.70391C 0.164406 3.57713 0.0748296 3.41895 0.0308222 3.24583C -0.0131853 3.07271 -0.0100161 2.89095 0.0400003 2.71947C 0.0900167 2.54798 0.185056 2.39303 0.315235 2.27071C 0.445413 2.14839 0.605979 2.06317 0.780242 2.02391L 9.51024 0.0239138C 9.64156 -0.00497705 9.77729 -0.00771929 9.90967 0.0158438C 10.0421 0.0394068 10.1685 0.0888132 10.2818 0.161243C 10.3951 0.233673 10.493 0.327707 10.5699 0.437976C 10.6469 0.548246 10.7014 0.672593 10.7302 0.803914C 10.7591 0.935236 10.7619 1.07096 10.7383 1.20334C 10.7147 1.33573 10.6653 1.46217 10.5929 1.57546C 10.5205 1.68875 10.4264 1.78666 10.3162 1.8636C 10.2059 1.94055 10.0816 1.99502 9.95024 2.02391L 2.95024 3.60391L 11.6702 12.3239L 13.2502 5.32392C 13.3086 5.0587 13.4699 4.82752 13.6987 4.68124C 13.9275 4.53497 14.205 4.48557 14.4702 4.54391C 14.7355 4.60226 14.9666 4.76358 15.1129 4.99237C 15.2592 5.22116 15.3086 5.4987 15.2502 5.76391L 13.2502 14.5039C 13.1994 14.7295 13.072 14.9305 12.8897 15.0727C 12.7074 15.2149 12.4814 15.2896 12.2502 15.2839L 12.2802 15.3039Z"/>
<path id="path15_fill" d="M 1.06812e-06 1.33C 0.250669 2.43724 0.810318 3.45064 1.61395 4.2525C 2.41758 5.05436 3.43221 5.61177 4.54 5.86L 5.87 0L 1.06812e-06 1.33Z"/>
<path id="path16_fill" d="M 5.53575 7.89583L 5.31575 7.89583C 4.02391 7.60474 2.84115 6.95318 1.90478 6.01681C 0.968408 5.08044 0.316848 3.89767 0.0257494 2.60583C -0.00388326 2.47779 -0.0079837 2.34516 0.0136797 2.21553C 0.0353431 2.0859 0.0823444 1.96182 0.152001 1.85037C 0.221657 1.73892 0.3126 1.64229 0.419628 1.56601C 0.526656 1.48974 0.64767 1.43531 0.775749 1.40583L 6.64575 0.0258343C 6.81114 -0.0125067 6.98357 -0.00810883 7.14679 0.0386135C 7.31001 0.0853359 7.45864 0.172845 7.57869 0.292894C 7.69874 0.412943 7.78625 0.56158 7.83297 0.724799C 7.8797 0.888019 7.88409 1.06045 7.84575 1.22584L 6.51575 7.09583C 6.46964 7.32171 6.34691 7.52471 6.16833 7.6705C 5.98975 7.81628 5.76628 7.89588 5.53575 7.89583ZM 2.29575 3.09583C 2.79727 4.21133 3.69026 5.10431 4.80575 5.60583L 5.54575 2.35583L 2.29575 3.09583Z"/>
</defs>
</svg>
