<svg  viewBox="0 0 46 46" version="1.1" xmlns="http://www.w3.org/2000/svg" xmlns:xlink="http://www.w3.org/1999/xlink">
<title>icon</title>
<desc>Created using Figma</desc>
<g id="Canvas" transform="translate(-1858 -57)">
<g id="icon">
<g id="Vector">
<use xlink:href="#path0_fill" transform="translate(1859 58)" fill="#00C6FF"/>
</g>
<g id="Vector">
<use xlink:href="#path1_fill" transform="translate(1858 57)" fill="#3D3D3D"/>
</g>
<g id="Vector">
<use xlink:href="#path2_fill" transform="translate(1877.62 58)" fill="#E5E5E5"/>
</g>
<g id="Vector">
<use xlink:href="#path3_fill" transform="translate(1876.62 57)" fill="#3D3D3D"/>
</g>
<g id="Vector">
<use xlink:href="#path4_fill" transform="translate(1896.23 58)" fill="#E5E5E5"/>
</g>
<g id="Vector">
<use xlink:href="#path5_fill" transform="translate(1895.23 57)" fill="#3D3D3D"/>
</g>
<g id="Vector">
<use xlink:href="#path6_fill" transform="translate(1859 95.23)" fill="#E5E5E5"/>
</g>
<g id="Vector">
<use xlink:href="#path7_fill" transform="translate(1858 94.23)" fill="#3D3D3D"/>
</g>
<g id="Vector">
<use xlink:href="#path8_fill" transform="translate(1877.62 95.23)" fill="#E5E5E5"/>
</g>
<g id="Vector">
<use xlink:href="#path9_fill" transform="translate(1876.62 94.23)" fill="#3D3D3D"/>
</g>
<g id="Vector">
<use xlink:href="#path10_fill" transform="translate(1859 76.62)" fill="#E5E5E5"/>
</g>
<g id="Vector">
<use xlink:href="#path11_fill" transform="translate(1858 75.62)" fill="#3D3D3D"/>
</g>
<g id="Vector">
<use xlink:href="#path12_fill" transform="translate(1896.23 76.62)" fill="#E5E5E5"/>
</g>
<g id="Vector">
<use xlink:href="#path13_fill" transform="translate(1895.23 75.62)" fill="#3D3D3D"/>
</g>
<g id="Vector">
<use xlink:href="#path14_fill" transform="translate(1896.23 95.23)" fill="#F2C94C"/>
</g>
<g id="Vector">
<use xlink:href="#path15_fill" transform="translate(1895.23 94.23)" fill="#3D3D3D"/>
</g>
<g id="Vector">
<use xlink:href="#path16_fill" transform="translate(1861.38 63.77)" fill="#3D3D3D"/>
</g>
<g id="Vector">
<use xlink:href="#path17_fill" transform="translate(1861.38 83.23)" fill="#3D3D3D"/>
</g>
<g id="Vector">
<use xlink:href="#path18_fill" transform="translate(1864.77 97.62)" fill="#3D3D3D"/>
</g>
<g id="Vector">
<use xlink:href="#path19_fill" transform="translate(1883.38 97.62)" fill="#3D3D3D"/>
</g>
<g id="Vector">
<use xlink:href="#path20_fill" transform="translate(1883.38 60.38)" fill="#3D3D3D"/>
</g>
<g id="Vector">
<use xlink:href="#path21_fill" transform="translate(1864.77 60.38)" fill="#3D3D3D"/>
</g>
<g id="Vector">
<use xlink:href="#path22_fill" transform="translate(1898.62 83.23)" fill="#3D3D3D"/>
</g>
<g id="Vector">
<use xlink:href="#path23_fill" transform="translate(1898.62 63.77)" fill="#3D3D3D"/>
</g>
</g>
</g>
<defs>
<path id="path0_fill" d="M 6.77 0L 0 0L 0 6.77L 6.77 6.77L 6.77 0Z"/>
<path id="path1_fill" d="M 7.77 8.77L 1 8.77C 0.734784 8.77 0.480429 8.66464 0.292892 8.47711C 0.105356 8.28957 0 8.03522 0 7.77L 0 1C 0 0.734784 0.105356 0.480429 0.292892 0.292892C 0.480429 0.105356 0.734784 0 1 0L 7.77 0C 8.03522 0 8.28957 0.105356 8.47711 0.292892C 8.66464 0.480429 8.77 0.734784 8.77 1L 8.77 7.77C 8.77 8.03522 8.66464 8.28957 8.47711 8.47711C 8.28957 8.66464 8.03522 8.77 7.77 8.77ZM 2 6.77L 6.77 6.77L 6.77 2L 2 2L 2 6.77Z"/>
<path id="path2_fill" d="M 6.77 0L 0 0L 0 6.77L 6.77 6.77L 6.77 0Z"/>
<path id="path3_fill" d="M 7.76 8.77L 0.999999 8.77C 0.734782 8.77 0.480428 8.66464 0.292891 8.47711C 0.105355 8.28957 -1.06812e-06 8.03522 -1.06812e-06 7.77L -1.06812e-06 1C -1.06812e-06 0.734784 0.105355 0.480429 0.292891 0.292892C 0.480428 0.105356 0.734782 0 0.999999 0L 7.77 0C 8.03522 0 8.28957 0.105356 8.47711 0.292892C 8.66464 0.480429 8.77 0.734784 8.77 1L 8.77 7.77C 8.77001 7.90217 8.74381 8.03302 8.69293 8.15501C 8.64206 8.27699 8.5675 8.38767 8.47358 8.48067C 8.37966 8.57366 8.26824 8.64711 8.14575 8.69677C 8.02327 8.74643 7.89216 8.77132 7.76 8.77ZM 1.99 6.77L 6.76 6.77L 6.76 2L 2 2L 1.99 6.77Z"/>
<path id="path4_fill" d="M 6.77 0L 0 0L 0 6.77L 6.77 6.77L 6.77 0Z"/>
<path id="path5_fill" d="M 7.77 8.77L 1 8.77C 0.734783 8.77 0.480428 8.66464 0.292892 8.47711C 0.105356 8.28957 -4.57764e-07 8.03522 -4.57764e-07 7.77L -4.57764e-07 1C -4.57764e-07 0.734784 0.105356 0.480429 0.292892 0.292892C 0.480428 0.105356 0.734783 0 1 0L 7.77 0C 8.03522 0 8.28957 0.105356 8.47711 0.292892C 8.66464 0.480429 8.77 0.734784 8.77 1L 8.77 7.77C 8.77 8.03522 8.66464 8.28957 8.47711 8.47711C 8.28957 8.66464 8.03522 8.77 7.77 8.77ZM 2 6.77L 6.77 6.77L 6.77 2L 2 2L 2 6.77Z"/>
<path id="path6_fill" d="M 6.77 0L 0 0L 0 6.77L 6.77 6.77L 6.77 0Z"/>
<path id="path7_fill" d="M 7.77 8.77L 1 8.77C 0.734784 8.77 0.480429 8.66464 0.292892 8.47711C 0.105356 8.28957 0 8.03522 0 7.77L 0 1C 0 0.734783 0.105356 0.480428 0.292892 0.292892C 0.480429 0.105356 0.734784 -4.57764e-07 1 -4.57764e-07L 7.77 -4.57764e-07C 8.03522 -4.57764e-07 8.28957 0.105356 8.47711 0.292892C 8.66464 0.480428 8.77 0.734783 8.77 1L 8.77 7.77C 8.77 8.03522 8.66464 8.28957 8.47711 8.47711C 8.28957 8.66464 8.03522 8.77 7.77 8.77ZM 2 6.77L 6.77 6.77L 6.77 2L 2 2L 2 6.77Z"/>
<path id="path8_fill" d="M 6.77 0L 0 0L 0 6.77L 6.77 6.77L 6.77 0Z"/>
<path id="path9_fill" d="M 7.76 8.77L 0.999999 8.77C 0.734782 8.77 0.480428 8.66464 0.292891 8.47711C 0.105355 8.28957 -1.06812e-06 8.03522 -1.06812e-06 7.77L -1.06812e-06 1C -1.06812e-06 0.734783 0.105355 0.480428 0.292891 0.292892C 0.480428 0.105356 0.734782 -4.57764e-07 0.999999 -4.57764e-07L 7.77 -4.57764e-07C 8.03522 -4.57764e-07 8.28957 0.105356 8.47711 0.292892C 8.66464 0.480428 8.77 0.734783 8.77 1L 8.77 7.77C 8.77001 7.90217 8.74381 8.03303 8.69293 8.15501C 8.64206 8.27699 8.5675 8.38767 8.47358 8.48066C 8.37966 8.57365 8.26824 8.6471 8.14575 8.69677C 8.02327 8.74643 7.89216 8.77132 7.76 8.77ZM 1.99 6.77L 6.76 6.77L 6.76 2L 2 2L 1.99 6.77Z"/>
<path id="path10_fill" d="M 6.77 0L 0 0L 0 6.77L 6.77 6.77L 6.77 0Z"/>
<path id="path11_fill" d="M 7.77 8.77L 1 8.77C 0.734784 8.77 0.480429 8.66464 0.292892 8.47711C 0.105356 8.28957 0 8.03522 0 7.77L 0 0.999999C 0 0.734782 0.105356 0.480428 0.292892 0.292891C 0.480429 0.105355 0.734784 -1.06812e-06 1 -1.06812e-06L 7.77 -1.06812e-06C 8.03522 -1.06812e-06 8.28957 0.105355 8.47711 0.292891C 8.66464 0.480428 8.77 0.734782 8.77 0.999999L 8.77 7.77C 8.77 8.03522 8.66464 8.28957 8.47711 8.47711C 8.28957 8.66464 8.03522 8.77 7.77 8.77ZM 2 6.77L 6.77 6.77L 6.77 2L 2 2L 2 6.77Z"/>
<path id="path12_fill" d="M 6.77 0L 0 0L 0 6.77L 6.77 6.77L 6.77 0Z"/>
<path id="path13_fill" d="M 7.77 8.77L 1 8.77C 0.734783 8.77 0.480428 8.66464 0.292892 8.47711C 0.105356 8.28957 -4.57764e-07 8.03522 -4.57764e-07 7.77L -4.57764e-07 0.999999C -4.57764e-07 0.734782 0.105356 0.480428 0.292892 0.292891C 0.480428 0.105355 0.734783 -1.06812e-06 1 -1.06812e-06L 7.77 -1.06812e-06C 8.03522 -1.06812e-06 8.28957 0.105355 8.47711 0.292891C 8.66464 0.480428 8.77 0.734782 8.77 0.999999L 8.77 7.77C 8.77 8.03522 8.66464 8.28957 8.47711 8.47711C 8.28957 8.66464 8.03522 8.77 7.77 8.77ZM 2 6.77L 6.77 6.77L 6.77 2L 2 2L 2 6.77Z"/>
<path id="path14_fill" d="M 6.77 0L 0 0L 0 6.77L 6.77 6.77L 6.77 0Z"/>
<path id="path15_fill" d="M 7.77 8.77L 1 8.77C 0.734783 8.77 0.480428 8.66464 0.292892 8.47711C 0.105356 8.28957 -4.57764e-07 8.03522 -4.57764e-07 7.77L -4.57764e-07 1C -4.57764e-07 0.734783 0.105356 0.480428 0.292892 0.292892C 0.480428 0.105356 0.734783 -4.57764e-07 1 -4.57764e-07L 7.77 -4.57764e-07C 8.03522 -4.57764e-07 8.28957 0.105356 8.47711 0.292892C 8.66464 0.480428 8.77 0.734783 8.77 1L 8.77 7.77C 8.77 8.03522 8.66464 8.28957 8.47711 8.47711C 8.28957 8.66464 8.03522 8.77 7.77 8.77ZM 2 6.77L 6.77 6.77L 6.77 2L 2 2L 2 6.77Z"/>
<path id="path16_fill" d="M 0.999999 13.85C 0.734783 13.85 0.48043 13.7446 0.292894 13.5571C 0.105357 13.3696 -8.39233e-07 13.1152 -8.39233e-07 12.85L -8.39233e-07 1C -8.39233e-07 0.734784 0.105357 0.480429 0.292894 0.292893C 0.48043 0.105357 0.734783 4.57764e-07 0.999999 4.57764e-07C 1.26522 4.57764e-07 1.51957 0.105357 1.70711 0.292893C 1.89464 0.480429 2 0.734784 2 1L 2 12.85C 2 13.1152 1.89464 13.3696 1.70711 13.5571C 1.51957 13.7446 1.26522 13.85 0.999999 13.85Z"/>
<path id="path17_fill" d="M 0.999999 13C 0.734783 13 0.48043 12.8946 0.292894 12.7071C 0.105357 12.5196 -8.39233e-07 12.2652 -8.39233e-07 12L -8.39233e-07 1C -8.39233e-07 0.734783 0.105357 0.480428 0.292894 0.292892C 0.48043 0.105356 0.734783 -4.57764e-07 0.999999 -4.57764e-07C 1.26522 -4.57764e-07 1.51957 0.105356 1.70711 0.292892C 1.89464 0.480428 2 0.734783 2 1L 2 12C 2 12.2652 1.89464 12.5196 1.70711 12.7071C 1.51957 12.8946 1.26522 13 0.999999 13Z"/>
<path id="path18_fill" d="M 12.85 2L 1 2C 0.734784 2 0.480429 1.89465 0.292893 1.70711C 0.105357 1.51957 4.57764e-07 1.26522 4.57764e-07 0.999999C 4.57764e-07 0.734782 0.105357 0.480428 0.292893 0.292891C 0.480429 0.105355 0.734784 -1.06812e-06 1 -1.06812e-06L 12.85 -1.06812e-06C 13.1152 -1.06812e-06 13.3696 0.105355 13.5571 0.292891C 13.7446 0.480428 13.85 0.734782 13.85 0.999999C 13.85 1.26522 13.7446 1.51957 13.5571 1.70711C 13.3696 1.89465 13.1152 2 12.85 2Z"/>
<path id="path19_fill" d="M 12.85 2L 1 2C 0.734785 2 0.48043 1.89465 0.292894 1.70711C 0.105357 1.51957 1.06812e-06 1.26522 1.06812e-06 0.999999C 1.06812e-06 0.734782 0.105357 0.480428 0.292894 0.292891C 0.48043 0.105355 0.734785 -1.06812e-06 1 -1.06812e-06L 12.85 -1.06812e-06C 13.1152 -1.06812e-06 13.3696 0.105355 13.5571 0.292891C 13.7446 0.480428 13.85 0.734782 13.85 0.999999C 13.85 1.26522 13.7446 1.51957 13.5571 1.70711C 13.3696 1.89465 13.1152 2 12.85 2Z"/>
<path id="path20_fill" d="M 12.85 2L 1 2C 0.734785 2 0.48043 1.89464 0.292894 1.70711C 0.105357 1.51957 1.06812e-06 1.26522 1.06812e-06 0.999999C 1.06812e-06 0.734783 0.105357 0.48043 0.292894 0.292894C 0.48043 0.105357 0.734785 -8.39233e-07 1 -8.39233e-07L 12.85 -8.39233e-07C 13.1152 -8.39233e-07 13.3696 0.105357 13.5571 0.292894C 13.7446 0.48043 13.85 0.734783 13.85 0.999999C 13.85 1.26522 13.7446 1.51957 13.5571 1.70711C 13.3696 1.89464 13.1152 2 12.85 2Z"/>
<path id="path21_fill" d="M 12.85 2L 1 2C 0.734784 2 0.480429 1.89464 0.292893 1.70711C 0.105357 1.51957 4.57764e-07 1.26522 4.57764e-07 0.999999C 4.57764e-07 0.734783 0.105357 0.48043 0.292893 0.292894C 0.480429 0.105357 0.734784 -8.39233e-07 1 -8.39233e-07L 12.85 -8.39233e-07C 13.1152 -8.39233e-07 13.3696 0.105357 13.5571 0.292894C 13.7446 0.48043 13.85 0.734783 13.85 0.999999C 13.85 1.26522 13.7446 1.51957 13.5571 1.70711C 13.3696 1.89464 13.1152 2 12.85 2Z"/>
<path id="path22_fill" d="M 0.999999 13C 0.734782 13 0.480428 12.8946 0.292891 12.7071C 0.105355 12.5196 -1.06812e-06 12.2652 -1.06812e-06 12L -1.06812e-06 1C -1.06812e-06 0.734783 0.105355 0.480428 0.292891 0.292892C 0.480428 0.105356 0.734782 -4.57764e-07 0.999999 -4.57764e-07C 1.26522 -4.57764e-07 1.51957 0.105356 1.70711 0.292892C 1.89465 0.480428 2 0.734783 2 1L 2 12C 2 12.1313 1.97413 12.2614 1.92388 12.3827C 1.87362 12.504 1.79997 12.6142 1.70711 12.7071C 1.61425 12.8 1.50401 12.8736 1.38269 12.9239C 1.26136 12.9741 1.13132 13 0.999999 13Z"/>
<path id="path23_fill" d="M 0.999999 13.85C 0.734782 13.85 0.480428 13.7446 0.292891 13.5571C 0.105355 13.3696 -1.06812e-06 13.1152 -1.06812e-06 12.85L -1.06812e-06 1C -1.06812e-06 0.734784 0.105355 0.480429 0.292891 0.292893C 0.480428 0.105357 0.734782 4.57764e-07 0.999999 4.57764e-07C 1.26522 4.57764e-07 1.51957 0.105357 1.70711 0.292893C 1.89465 0.480429 2 0.734784 2 1L 2 12.85C 2 12.9813 1.97413 13.1114 1.92388 13.2327C 1.87362 13.354 1.79997 13.4642 1.70711 13.5571C 1.61425 13.65 1.50401 13.7236 1.38269 13.7739C 1.26136 13.8241 1.13132 13.85 0.999999 13.85Z"/>
</defs>
</svg>
