<svg viewBox="0 0 41 49" version="1.1" xmlns="http://www.w3.org/2000/svg" xmlns:xlink="http://www.w3.org/1999/xlink">
<title>icon</title>
<desc>Created using Figma</desc>
<g id="Canvas" transform="translate(-1859 241)">
<g id="icon">
<g id="Vector">
<use xlink:href="#path0_fill" transform="translate(1860 -239.996)" fill="#E5E5E5"/>
</g>
<g id="Vector">
<use xlink:href="#path1_fill" transform="translate(1859 -240.999)" fill="#3D3D3D"/>
</g>
<g id="Group" opacity="0.2">
<g id="Vector" opacity="0.2">
<use xlink:href="#path2_fill" transform="translate(1876.23 -217.746)"/>
</g>
</g>
<g id="Vector">
<use xlink:href="#path3_fill" transform="translate(1869.52 -239.996)" fill="#E5E5E5"/>
</g>
<g id="Vector">
<use xlink:href="#path4_fill" transform="translate(1868.48 -241)" fill="#3D3D3D"/>
</g>
<g id="Vector">
<use xlink:href="#path5_fill" transform="translate(1877.1 -217.036)" fill="#3D3D3D"/>
</g>
<g id="Vector">
<use xlink:href="#path6_fill" transform="translate(1860.1 -209.996)" fill="#00C6FF"/>
</g>
<g id="Vector">
<use xlink:href="#path7_fill" transform="translate(1859.1 -210.996)" fill="#3D3D3D"/>
</g>
<g id="Vector">
<use xlink:href="#path8_fill" transform="translate(1864.1 -205.996)" fill="#E5E5E5"/>
</g>
<g id="Vector">
<use xlink:href="#path9_fill" transform="translate(1863.1 -206.996)" fill="#3D3D3D"/>
</g>
<g id="Vector">
<use xlink:href="#path6_fill" transform="translate(1882.1 -209.996)" fill="#F2C94C"/>
</g>
<g id="Vector">
<use xlink:href="#path10_fill" transform="translate(1881.1 -210.996)" fill="#3D3D3D"/>
</g>
<g id="Vector">
<use xlink:href="#path8_fill" transform="translate(1886.1 -205.996)" fill="#E5E5E5"/>
</g>
<g id="Vector">
<use xlink:href="#path11_fill" transform="translate(1885.1 -206.996)" fill="#3D3D3D"/>
</g>
</g>
</g>
<defs>
<path id="path0_fill" d="M 24.1838 35.16L 28.7938 31.16L 1.68378 0C 0.327695 2.26071 -0.233715 4.90988 0.0888102 7.52632C 0.411336 10.1428 1.59928 12.5763 3.46379 14.44L 24.1838 35.16Z"/>
<path id="path1_fill" d="M 25.1822 37.1631C 25.0506 37.1638 24.9201 37.1386 24.7983 37.0889C 24.6764 37.0391 24.5656 36.9658 24.4722 36.8731L 3.76219 16.1531C 1.73652 14.132 0.445886 11.4908 0.0960904 8.65077C -0.253705 5.81072 0.357479 2.93532 1.83219 0.483084C 1.91362 0.348233 2.02575 0.234528 2.15946 0.151232C 2.29316 0.0679359 2.44466 0.0174062 2.6016 0.00375946C 2.75853 -0.00988723 2.91647 0.0137354 3.06255 0.0727025C 3.20863 0.13167 3.33871 0.224313 3.44219 0.343084L 30.5422 31.4731C 30.7158 31.6734 30.8028 31.9344 30.784 32.1988C 30.7653 32.4632 30.6423 32.7093 30.4422 32.8831L 25.8322 36.8831C 25.6569 37.0525 25.4257 37.1521 25.1822 37.1631ZM 2.90219 2.77308C 2.02678 4.76899 1.77511 6.98289 2.1802 9.12436C 2.5853 11.2658 3.62823 13.2348 5.17219 14.7731L 25.2222 34.7931L 28.3822 32.0031L 2.90219 2.77308Z"/>
<path id="path2_fill" d="M 5.75 0L 1.06812e-06 6.38L 4.37 10.69L 10.06 5.06L 5.75 0Z"/>
<path id="path3_fill" d="M 25.22 14.44C 27.0845 12.5763 28.2725 10.1428 28.595 7.52632C 28.9175 4.90988 28.3561 2.26071 27 0L -1.83105e-06 31.12L 4.55 35.12L 25.22 14.44Z"/>
<path id="path4_fill" d="M 5.54374 37.1636C 5.30067 37.1633 5.06605 37.0744 4.88374 36.9136L 0.333745 32.9136C 0.138027 32.7387 0.0188985 32.4939 0.0020612 32.232C -0.0147761 31.9701 0.0720277 31.7121 0.243745 31.5136L 27.2437 0.393605C 27.3458 0.259815 27.4799 0.153933 27.6337 0.0857606C 27.7876 0.0175884 27.9561 -0.0106687 28.1237 0.00360537C 28.2808 0.0172353 28.4325 0.0678251 28.5663 0.151246C 28.7001 0.234666 28.8123 0.348552 28.8937 0.483605C 30.3685 2.93584 30.9796 5.81124 30.6298 8.65129C 30.28 11.4913 28.9894 14.1325 26.9637 16.1536L 6.25375 36.8736C 6.16031 36.9663 6.04949 37.0396 5.92765 37.0894C 5.80581 37.1391 5.67535 37.1644 5.54374 37.1636ZM 2.40374 32.0036L 5.50375 34.7536L 25.5037 14.7536C 27.0477 13.2154 28.0906 11.2464 28.4957 9.10489C 28.9008 6.96342 28.6492 4.74951 27.7737 2.75361L 2.40374 32.0036Z"/>
<path id="path5_fill" d="M 2 4C 3.10457 4 4 3.10457 4 2C 4 0.895429 3.10457 0 2 0C 0.89543 0 0 0.895429 0 2C 0 3.10457 0.89543 4 2 4Z"/>
<path id="path6_fill" d="M 8 16C 12.4183 16 16 12.4183 16 8C 16 3.58172 12.4183 0 8 0C 3.58172 0 0 3.58172 0 8C 0 12.4183 3.58172 16 8 16Z"/>
<path id="path7_fill" d="M 9 18C 7.21997 18 5.47991 17.4722 3.99987 16.4832C 2.51983 15.4943 1.36628 14.0887 0.685087 12.4442C 0.00389874 10.7996 -0.174331 8.99002 0.172936 7.24419C 0.520203 5.49836 1.37737 3.89472 2.63604 2.63604C 3.89472 1.37737 5.49836 0.520203 7.24419 0.172936C 8.99002 -0.174331 10.7996 0.00390065 12.4442 0.685089C 14.0887 1.36628 15.4943 2.51983 16.4832 3.99987C 17.4722 5.47991 18 7.21997 18 9C 18 11.387 17.0518 13.6761 15.364 15.364C 13.6761 17.0518 11.387 18 9 18ZM 9 2C 7.61553 2 6.26216 2.41055 5.11101 3.17972C 3.95987 3.94889 3.06266 5.04214 2.53285 6.32122C 2.00303 7.6003 1.86441 9.00777 2.13451 10.3656C 2.4046 11.7235 3.07129 12.9708 4.05026 13.9497C 5.02922 14.9287 6.27651 15.5954 7.63437 15.8655C 8.99224 16.1356 10.3997 15.997 11.6788 15.4672C 12.9579 14.9373 14.0511 14.0401 14.8203 12.889C 15.5895 11.7379 16 10.3845 16 9C 16 7.14349 15.2625 5.36301 13.9498 4.05025C 12.637 2.7375 10.8565 2 9 2Z"/>
<path id="path8_fill" d="M 4 8C 6.20914 8 8 6.20914 8 4C 8 1.79086 6.20914 0 4 0C 1.79086 0 0 1.79086 0 4C 0 6.20914 1.79086 8 4 8Z"/>
<path id="path9_fill" d="M 5 10C 4.0111 10 3.0444 9.70676 2.22215 9.15735C 1.39991 8.60794 0.759042 7.82705 0.380604 6.91342C 0.00216594 5.99979 -0.0968507 4.99445 0.0960754 4.02455C 0.289002 3.05465 0.765206 2.16373 1.46447 1.46447C 2.16373 0.765206 3.05465 0.289002 4.02455 0.0960754C 4.99445 -0.0968507 5.99979 0.00216785 6.91342 0.380606C 7.82705 0.759044 8.60794 1.39991 9.15735 2.22215C 9.70676 3.0444 10 4.0111 10 5C 10 6.32609 9.47322 7.59785 8.53554 8.53554C 7.59785 9.47322 6.32609 10 5 10ZM 5 2C 4.40666 2 3.82664 2.17595 3.33329 2.50559C 2.83994 2.83524 2.45543 3.30378 2.22836 3.85195C 2.0013 4.40013 1.94189 5.00333 2.05765 5.58527C 2.1734 6.16722 2.45912 6.70176 2.87868 7.12132C 3.29824 7.54088 3.83279 7.8266 4.41473 7.94236C 4.99668 8.05811 5.59987 7.9987 6.14805 7.77164C 6.69623 7.54458 7.16477 7.16006 7.49441 6.66671C 7.82405 6.17336 8 5.59335 8 5C 8 4.20435 7.68393 3.44129 7.12132 2.87868C 6.55871 2.31607 5.79565 2 5 2Z"/>
<path id="path10_fill" d="M 9 18C 7.21997 18 5.47991 17.4722 3.99987 16.4832C 2.51983 15.4943 1.36628 14.0887 0.685089 12.4442C 0.00390065 10.7996 -0.174331 8.99002 0.172936 7.24419C 0.520203 5.49836 1.37737 3.89472 2.63604 2.63604C 3.89472 1.37737 5.49836 0.520203 7.24419 0.172936C 8.99002 -0.174331 10.7996 0.00390065 12.4442 0.685089C 14.0887 1.36628 15.4943 2.51983 16.4832 3.99987C 17.4722 5.47991 18 7.21997 18 9C 18 11.387 17.0518 13.6761 15.364 15.364C 13.6761 17.0518 11.387 18 9 18ZM 9 2C 7.61553 2 6.26216 2.41055 5.11101 3.17972C 3.95987 3.94889 3.06266 5.04214 2.53285 6.32122C 2.00304 7.6003 1.86441 9.00777 2.13451 10.3656C 2.4046 11.7235 3.07129 12.9708 4.05025 13.9497C 5.02922 14.9287 6.27651 15.5954 7.63437 15.8655C 8.99224 16.1356 10.3997 15.997 11.6788 15.4672C 12.9579 14.9373 14.0511 14.0401 14.8203 12.889C 15.5895 11.7379 16 10.3845 16 9C 16 7.14349 15.2625 5.36301 13.9498 4.05025C 12.637 2.7375 10.8565 2 9 2Z"/>
<path id="path11_fill" d="M 5 10C 4.0111 10 3.0444 9.70676 2.22215 9.15735C 1.39991 8.60794 0.759044 7.82705 0.380606 6.91342C 0.00216785 5.99979 -0.0968507 4.99445 0.0960754 4.02455C 0.289002 3.05465 0.765206 2.16373 1.46447 1.46447C 2.16373 0.765206 3.05465 0.289002 4.02455 0.0960754C 4.99445 -0.0968507 5.99979 0.00216785 6.91342 0.380606C 7.82705 0.759044 8.60794 1.39991 9.15735 2.22215C 9.70676 3.0444 10 4.0111 10 5C 10 6.32609 9.47322 7.59785 8.53554 8.53554C 7.59785 9.47322 6.32609 10 5 10ZM 5 2C 4.40666 2 3.82664 2.17595 3.33329 2.50559C 2.83994 2.83524 2.45543 3.30378 2.22837 3.85195C 2.0013 4.40013 1.94189 5.00333 2.05765 5.58527C 2.1734 6.16722 2.45913 6.70176 2.87868 7.12132C 3.29824 7.54088 3.83279 7.8266 4.41473 7.94236C 4.99668 8.05811 5.59987 7.9987 6.14805 7.77164C 6.69623 7.54458 7.16477 7.16006 7.49441 6.66671C 7.82405 6.17336 8 5.59335 8 5C 8 4.20435 7.68393 3.44129 7.12132 2.87868C 6.55871 2.31607 5.79565 2 5 2Z"/>
</defs>
</svg>
